<svg width="32" height="32" viewBox="0 0 32 32" fill="none" xmlns="http://www.w3.org/2000/svg">
<path d="M17.3333 6.6672C17.3333 5.93082 16.7364 5.33386 16 5.33386C15.2636 5.33386 14.6666 5.93082 14.6666 6.6672V14.6672H6.66665C5.93027 14.6672 5.33331 15.2641 5.33331 16.0005C5.33331 16.7369 5.93027 17.3339 6.66665 17.3339H14.6666V25.3339C14.6666 26.0702 15.2636 26.6672 16 26.6672C16.7364 26.6672 17.3333 26.0702 17.3333 25.3339V17.3339H25.3333C26.0697 17.3339 26.6666 16.7369 26.6666 16.0005C26.6666 15.2641 26.0697 14.6672 25.3333 14.6672H17.3333V6.6672Z" fill="#141533"/>
</svg>
