<svg width="32" height="32" viewBox="0 0 32 32" fill="none" xmlns="http://www.w3.org/2000/svg">
<path fill-rule="evenodd" clip-rule="evenodd" d="M16 2.66663C8.63619 2.66663 2.66666 8.63616 2.66666 16C2.66666 23.3638 8.63619 29.3333 16 29.3333C23.3638 29.3333 29.3333 23.3638 29.3333 16C29.3333 8.63616 23.3638 2.66663 16 2.66663ZM5.66937 13.3333C5.45 14.1856 5.33332 15.0792 5.33332 16C5.33332 16.9208 5.45 17.8143 5.66937 18.6666H9.45908C9.37636 17.8027 9.33332 16.9105 9.33332 16C9.33332 15.0894 9.37636 14.1972 9.45908 13.3333H5.66937ZM6.76033 10.6666H9.85755C10.1402 9.30195 10.5301 8.05359 11.0103 6.97316C11.0907 6.79237 11.1742 6.61492 11.2608 6.44128C9.37721 7.37697 7.80945 8.85302 6.76033 10.6666ZM12.1393 13.3333C12.0487 14.1834 12 15.0762 12 16C12 16.9237 12.0487 17.8165 12.1393 18.6666H19.8607C19.9513 17.8165 20 16.9237 20 16C20 15.0762 19.9513 14.1834 19.8607 13.3333H12.1393ZM19.4111 10.6666H12.5888C12.8204 9.69016 13.1117 8.81097 13.4472 8.0562C13.8845 7.07225 14.3707 6.35853 14.8432 5.90884C15.3088 5.46569 15.6975 5.33329 16 5.33329C16.3025 5.33329 16.6911 5.46569 17.1568 5.90884C17.6293 6.35853 18.1155 7.07225 18.5528 8.0562C18.8883 8.81097 19.1796 9.69016 19.4111 10.6666ZM22.5409 13.3333C22.6236 14.1972 22.6667 15.0894 22.6667 16C22.6667 16.9105 22.6236 17.8027 22.5409 18.6666H26.3306C26.55 17.8143 26.6667 16.9208 26.6667 16C26.6667 15.0792 26.55 14.1856 26.3306 13.3333H22.5409ZM25.2396 10.6666H22.1424C21.8598 9.30195 21.4698 8.05359 20.9896 6.97316C20.9093 6.79237 20.8258 6.61492 20.7392 6.44128C22.6228 7.37697 24.1905 8.85302 25.2396 10.6666ZM11.2608 25.5586C9.37721 24.623 7.80945 23.1469 6.76033 21.3333H9.85755C10.1402 22.698 10.5301 23.9463 11.0103 25.0268C11.0907 25.2075 11.1742 25.385 11.2608 25.5586ZM13.4472 23.9437C13.1117 23.189 12.8204 22.3098 12.5888 21.3333H19.4111C19.1796 22.3098 18.8883 23.189 18.5528 23.9437C18.1155 24.9277 17.6293 25.6414 17.1568 26.0911C16.6911 26.5342 16.3025 26.6666 16 26.6666C15.6975 26.6666 15.3088 26.5342 14.8432 26.0911C14.3707 25.6414 13.8845 24.9277 13.4472 23.9437ZM20.9896 25.0268C21.4698 23.9463 21.8598 22.698 22.1424 21.3333H25.2396C24.1905 23.1469 22.6228 24.623 20.7392 25.5586C20.8258 25.385 20.9093 25.2075 20.9896 25.0268Z" fill="white"/>
</svg>
