<svg width="33" height="32" viewBox="0 0 33 32" fill="none" xmlns="http://www.w3.org/2000/svg">
<path fill-rule="evenodd" clip-rule="evenodd" d="M6.19898 5.75305L11.4005 4.31423C12.1418 4.10916 12.9263 4.12577 13.6585 4.36206L19.3472 6.19791C20.0793 6.43419 20.8638 6.45081 21.6051 6.24574L25.5443 5.15611C27.6479 4.5742 29.7238 6.1708 29.7238 8.37072V22.3894C29.7238 24.191 28.5295 25.7703 26.8066 26.2469L21.6051 27.6857C20.8638 27.8908 20.0793 27.8742 19.3472 27.6379L13.6585 25.8021C12.9263 25.5658 12.1418 25.5492 11.4005 25.7542L7.46137 26.8439C5.35769 27.4258 3.28184 25.8292 3.28184 23.6292V9.61058C3.28184 7.80893 4.47615 6.22962 6.19898 5.75305ZM6.89841 8.32474L11.2144 7.13086V23.0625C11.0422 23.0955 10.871 23.1355 10.7011 23.1825L6.76194 24.2722C6.34121 24.3885 5.92603 24.0692 5.92603 23.6292V9.61058C5.92603 9.01003 6.32413 8.48359 6.89841 8.32474ZM14.4644 23.2623C14.2645 23.1978 14.0624 23.1431 13.8586 23.0983V7.22652L18.5413 8.73771C18.7411 8.80219 18.9432 8.85686 19.147 8.90169V24.7734L14.4644 23.2623ZM21.7912 24.8691L26.1072 23.6752C26.6815 23.5164 27.0796 22.9899 27.0796 22.3894V8.37072C27.0796 7.93073 26.6644 7.61141 26.2437 7.7278L22.3046 8.81742C22.1347 8.86442 21.9634 8.90443 21.7912 8.93747V24.8691Z" fill="white"/>
</svg>
