<svg width="339" height="350" viewBox="0 0 339 350" fill="none" xmlns="http://www.w3.org/2000/svg">
<path d="M216.088 10.2437C223.196 -3.84623 243.997 -1.48981 247.772 13.8331L279.948 144.408C281.136 149.225 284.368 153.284 288.798 155.518L408.866 216.088C422.956 223.196 420.599 243.997 405.276 247.772L274.702 279.948C269.884 281.136 265.826 284.368 263.591 288.798L203.021 408.866C195.913 422.956 175.113 420.599 171.337 405.276L139.161 274.702C137.974 269.884 134.741 265.826 130.311 263.591L10.2437 203.021C-3.84626 195.913 -1.48985 175.113 13.8331 171.337L144.408 139.161C149.225 137.974 153.283 134.741 155.518 130.312L216.088 10.2437Z" fill="white" fill-opacity="0.04"/>
</svg>
